<?xml version="1.0" standalone="no"?>
<!DOCTYPE svg PUBLIC "-//W3C//DTD SVG 20010904//EN"
 "http://www.w3.org/TR/2001/REC-SVG-20010904/DTD/svg10.dtd">
<svg version="1.0" xmlns="http://www.w3.org/2000/svg"
 width="805.000000pt" height="1280.000000pt" viewBox="0 0 805.000000 1280.000000"
 preserveAspectRatio="xMidYMid meet">
<g transform="translate(0.000000,1280.000000) scale(0.100000,-0.100000)"
fill="#000000" stroke="none">
<path d="M1475 12788 c-38 -21 -65 -51 -65 -73 0 -12 184 -465 410 -1006 l410
-984 -23 -18 c-12 -10 -57 -40 -99 -67 -95 -60 -214 -172 -285 -267 l-54 -73
-802 -2 c-791 -3 -803 -3 -842 -24 -48 -25 -95 -83 -114 -142 -13 -39 -13 -48
6 -100 14 -38 232 -378 633 -987 337 -512 1010 -1533 1495 -2270 485 -737 931
-1415 992 -1506 131 -199 181 -293 222 -419 47 -145 108 -394 133 -547 l22
-138 3 -1568 c3 -1266 1 -1568 -9 -1572 -7 -3 -373 -74 -813 -158 l-800 -153
-3 -357 -2 -357 2135 0 2135 0 -2 357 -3 357 -800 153 c-440 84 -806 155 -813
158 -10 4 -12 306 -9 1572 l3 1568 22 138 c25 153 86 402 133 547 41 126 91
220 222 419 61 91 507 769 992 1506 485 737 1158 1758 1495 2270 401 609 619
949 633 987 19 52 19 61 6 100 -19 59 -66 117 -114 142 l-40 21 -2158 3 -2157
2 -17 38 c-88 201 -144 296 -213 355 -42 35 -181 95 -283 121 -91 24 -251 38
-340 31 -88 -7 -244 -38 -306 -60 -21 -7 -43 -10 -49 -6 -6 4 -187 452 -401
996 -284 720 -397 994 -413 1007 -27 20 -45 22 -73 6z m217 -2634 c3 -3 -1
-26 -9 -52 -10 -30 -16 -90 -17 -167 -1 -100 3 -132 22 -194 32 -102 75 -174
154 -257 38 -39 68 -74 68 -78 0 -3 -43 -6 -95 -6 l-96 0 -84 130 -85 130
-255 0 c-140 0 -255 -2 -255 -5 0 -3 34 -57 75 -120 41 -64 75 -120 75 -125 0
-6 -86 -10 -220 -10 -121 0 -220 -3 -220 -6 0 -3 32 -58 71 -121 430 -702
1111 -1729 1927 -2908 520 -750 527 -759 657 -840 170 -106 372 -155 633 -155
336 0 641 113 784 291 34 43 2478 3725 2478 3734 0 3 -927 5 -2060 5 -1133 0
-2060 4 -2060 8 0 5 26 26 57 48 132 90 316 307 355 419 13 36 17 82 18 168
l0 117 2109 0 c1354 0 2119 -4 2135 -10 35 -13 51 -50 39 -87 -6 -15 -312
-485 -680 -1043 -1718 -2606 -2537 -3855 -2577 -3931 -96 -182 -193 -560 -237
-919 -18 -148 -25 -3243 -7 -3257 7 -5 373 -78 813 -162 440 -84 803 -156 808
-160 4 -4 6 -104 5 -222 l-3 -214 -1990 0 -1990 0 -3 214 c-1 118 1 218 5 222
5 4 368 76 808 160 440 84 806 157 813 162 18 14 11 3109 -7 3257 -44 359
-141 737 -237 919 -40 76 -859 1325 -2577 3931 -368 558 -674 1028 -680 1043
-12 36 4 74 35 87 24 9 1491 14 1500 4z"/>
</g>
</svg>
