<?xml version="1.0" encoding="utf-8"?>
<!-- Svg Vector Icons : http://www.onlinewebfonts.com/icon -->
<!DOCTYPE svg PUBLIC "-//W3C//DTD SVG 1.1//EN" "http://www.w3.org/Graphics/SVG/1.1/DTD/svg11.dtd">
<svg version="1.1" xmlns="http://www.w3.org/2000/svg" xmlns:xlink="http://www.w3.org/1999/xlink" x="0px" y="0px" viewBox="0 0 1000 1000" enable-background="new 0 0 1000 1000" xml:space="preserve">
<metadata> Svg Vector Icons : http://www.onlinewebfonts.com/icon </metadata>
<g><g transform="translate(0.000000,511.000000) scale(0.100000,-0.100000)"><path d="M6977.4,4960.3c-31.4-31.3-227.9-421.7-438.8-869l-381.8-817.7H3583.9c-2535.9,0-2572.9,0-2629.9-57c-34.2-34.2-57-94-57-153.9c0-91.2,153.9-262.1,1937.5-2171.2l1937.5-2074.3v-1299.3v-1296.4l-532.8-284.9c-293.5-156.7-569.9-316.3-612.6-350.5c-102.6-85.5-105.4-210.9-8.5-304.9l68.4-71.2H5000h1313.5l68.4,71.2c85.5,82.6,94,219.4,19.9,293.4c-28.5,25.7-304.9,182.4-612.6,347.6l-561.3,299.2v1299.3v1296.4L7165.5,891.5C8937.7,2786.2,9103,2974.3,9103,3062.6c0,59.8-22.8,114-62.7,153.9c-59.8,54.1-94,57-1225.2,57c-638.2,0-1162.5,5.7-1162.5,11.4c0,8.6,153.9,344.8,344.7,749.4c245.1,527.1,336.3,752.2,324.8,797.8C7282.3,4994.4,7091.4,5065.7,6977.4,4960.3z M5931.7,2811.9c-8.5-19.9-37-91.2-62.7-156.7l-48.4-122.5H3866H1911.4l-136.8,133.9c-74.1,74.1-136.8,145.3-136.8,156.7c0,11.4,968.8,22.8,2154.1,22.8C5504.3,2846.1,5943.1,2837.5,5931.7,2811.9z M8362.2,2826.1c0-11.4-59.8-82.6-133.9-156.7l-133.9-136.8h-891.8c-490.1,0-891.8,8.5-891.8,17.1c0,8.5,28.5,79.8,59.8,156.7l59.9,139.6h965.9C7929.1,2846.1,8362.2,2837.5,8362.2,2826.1z M5598.4,2091c0-8.5-37.1-91.2-85.5-182.3l-82.6-168.1h-145.3c-333.4-2.8-604.1-176.7-743.7-473c-145.3-307.7-96.9-652.5,125.4-917.5l76.9-91.2l-71.2-156.7c-82.6-176.6-74.1-279.2,22.8-347.6c142.5-99.7,282.1-37.1,373.3,168.1l68.4,151l213.7,14.2c236.5,14.3,390.4,85.5,552.8,256.5c287.8,299.2,290.6,823.4,8.5,1119.8l-79.8,85.5l128.2,279.2l131.1,276.4h792.1c438.8,0,795-5.7,795-11.4c0-25.6-2655.5-2852.1-2678.3-2852.1c-25.6,0-2678.3,2826.5-2678.3,2852.1c0,5.7,738,11.4,1638.3,11.4C4860.4,2105.3,5598.4,2099.6,5598.4,2091z M5473,1261.9c125.4-59.8,210.9-199.4,210.9-353.3c0-216.6-145.3-370.4-367.6-390.4C4906,484,4735,1011.1,5082.6,1241.9C5196.6,1318.9,5336.2,1324.6,5473,1261.9z M5196.6-4254.4l159.6-94l-176.7-8.6c-99.7-5.7-259.3-5.7-356.2,0l-179.5,8.6l156.7,91.1c85.5,51.3,173.8,94.1,196.6,94.1C5017.1-4163.2,5108.3-4205.9,5196.6-4254.4z"/></g></g>
</svg>